<svg xmlns="http://www.w3.org/2000/svg" viewBox="0 0 493.04 493.04"><defs><style>.cls-1,.cls-3,.cls-4,.cls-6,.cls-7{fill:none;}.cls-1,.cls-2,.cls-3,.cls-4{stroke:#000;}.cls-1,.cls-2,.cls-3,.cls-4,.cls-5,.cls-6,.cls-7{stroke-miterlimit:10;}.cls-1{stroke-width:8px;}.cls-2,.cls-5{fill:#fff;}.cls-2,.cls-3{stroke-width:6px;}.cls-4,.cls-6{stroke-width:3px;}.cls-5,.cls-6,.cls-7{stroke:#231f20;}.cls-5{stroke-width:4px;}.cls-7{stroke-width:5px;}</style></defs><g id="Layer_2" data-name="Layer 2"><g id="Layer_1-2" data-name="Layer 1"><g id="Predictivo"><circle id="Rodona" class="cls-1" cx="246.52" cy="246.52" r="242.52"/><g id="Document"><polygon class="cls-2" points="299.75 380.3 98.1 380.3 98.1 145.86 125.55 115.33 156.72 80.74 299.75 80.74 299.75 380.3"/><line class="cls-3" x1="156.67" y1="80.74" x2="156.67" y2="146.58"/><line class="cls-3" x1="98.7" y1="145.73" x2="159.67" y2="145.73"/><line class="cls-4" x1="121.93" y1="341.28" x2="272.79" y2="341.28"/><line class="cls-4" x1="121.93" y1="303" x2="272.79" y2="303"/><line class="cls-4" x1="121.93" y1="264.73" x2="272.79" y2="264.73"/><line class="cls-4" x1="121.93" y1="226.45" x2="272.79" y2="226.45"/><line class="cls-4" x1="121.93" y1="188.17" x2="272.79" y2="188.17"/></g><g id="Bola"><path class="cls-5" d="M324.46,297.15,249.67,400.41s28.05,14.78,74.79,14.6"/><path class="cls-5" d="M324.46,297.15l74.8,103.26s-28.05,16.7-74.8,14.6"/><circle class="cls-5" cx="324.46" cy="305.32" r="74.79"/><path class="cls-6" d="M258,302.91a66.51,66.51,0,0,1,66.51-66.51"/><polygon class="cls-7" points="324.46 255.74 335.59 290 371.61 290 342.47 311.17 353.6 345.42 324.46 324.25 295.32 345.42 306.45 311.17 277.32 290 313.33 290 324.46 255.74"/></g></g></g></g></svg>