<svg xmlns="http://www.w3.org/2000/svg" viewBox="0 0 493.04 493.04"><defs><style>.cls-1,.cls-5,.cls-6,.cls-7{fill:none;}.cls-1,.cls-2,.cls-3{stroke:#000;}.cls-1,.cls-2,.cls-3,.cls-4,.cls-5,.cls-6,.cls-7{stroke-miterlimit:10;}.cls-1{stroke-width:8px;}.cls-2,.cls-3,.cls-4{fill:#fff;}.cls-2{stroke-width:6px;}.cls-3,.cls-7{stroke-width:3px;}.cls-4,.cls-5,.cls-6,.cls-7{stroke:#231f20;}.cls-4{stroke-width:4px;}.cls-5{stroke-width:2px;}</style></defs><g id="Layer_2" data-name="Layer 2"><g id="Layer_1-2" data-name="Layer 1"><g id="Descriptivo"><circle id="Rodona" class="cls-1" cx="246.52" cy="246.52" r="242.52"/><g id="Document"><polygon class="cls-2" points="299.75 380.3 98.1 380.3 98.1 145.86 125.55 115.33 156.72 80.74 299.75 80.74 299.75 380.3"/><line class="cls-2" x1="156.67" y1="80.74" x2="156.67" y2="146.58"/><line class="cls-2" x1="98.7" y1="145.73" x2="159.68" y2="145.73"/><line class="cls-3" x1="121.93" y1="341.28" x2="272.79" y2="341.28"/><line class="cls-3" x1="121.93" y1="303" x2="272.79" y2="303"/><line class="cls-3" x1="121.93" y1="264.73" x2="272.79" y2="264.73"/><line class="cls-3" x1="121.93" y1="226.45" x2="272.79" y2="226.45"/><line class="cls-3" x1="121.93" y1="188.17" x2="272.79" y2="188.17"/></g><g id="Lupa"><rect class="cls-4" x="295.83" y="365.26" width="106.48" height="15.89" rx="4.76" transform="translate(317.47 -136.83) rotate(39.54)"/><circle class="cls-4" cx="279.51" cy="315.78" r="44.5"/><path class="cls-5" d="M279.59,352.09a36.32,36.32,0,0,1-36.32-36.31"/><line class="cls-6" x1="263.18" y1="357.14" x2="296" y2="357.14"/><path class="cls-7" d="M247.7,304.1s12.29-10.27,17.34-6c4.86,4.15,14.86,12,19.94,6.57,8.74-9.39,21.57-.62,21.57-.62"/><path class="cls-7" d="M247.7,341.35s9.39-9.08,19.72,0c3.29,2.9,13.46,4.35,17.53,0,2.62-2.8,11.51-4,15.34-4,6.26-.07,6.5,4,6.5,4"/></g></g></g></g></svg>