<svg xmlns="http://www.w3.org/2000/svg" viewBox="0 0 493.04 493.04"><defs><style>.cls-1,.cls-3,.cls-4,.cls-7{fill:none;}.cls-1,.cls-2,.cls-3,.cls-4{stroke:#000;}.cls-1,.cls-2,.cls-3,.cls-4,.cls-5,.cls-6,.cls-7{stroke-miterlimit:10;}.cls-1{stroke-width:8px;}.cls-2,.cls-5{fill:#fff;}.cls-2,.cls-3{stroke-width:6px;}.cls-4{stroke-width:3px;}.cls-5,.cls-6,.cls-7{stroke:#231f20;}.cls-5,.cls-7{stroke-width:4px;}.cls-6{fill:#231f20;}</style></defs><g id="Layer_2" data-name="Layer 2"><g id="Layer_1-2" data-name="Layer 1"><g id="Prescriptivo"><circle id="Rodona" class="cls-1" cx="246.52" cy="246.52" r="242.52"/><g id="Document"><polygon class="cls-2" points="299.75 380.3 98.1 380.3 98.1 145.86 125.55 115.33 156.72 80.74 299.75 80.74 299.75 380.3"/><line class="cls-3" x1="156.67" y1="80.74" x2="156.67" y2="146.58"/><line class="cls-3" x1="98.7" y1="145.73" x2="159.67" y2="145.73"/><line class="cls-4" x1="121.93" y1="341.28" x2="272.79" y2="341.28"/><line class="cls-4" x1="121.93" y1="303" x2="272.79" y2="303"/><line class="cls-4" x1="121.93" y1="264.73" x2="272.79" y2="264.73"/><line class="cls-4" x1="121.93" y1="226.45" x2="272.79" y2="226.45"/><line class="cls-4" x1="121.93" y1="188.17" x2="272.79" y2="188.17"/></g><g id="Pastilaas"><rect class="cls-5" x="345.27" y="295.49" width="45.34" height="113.57" rx="22.67"/><path class="cls-6" d="M390.6,348.38v38a22.67,22.67,0,0,1-22.67,22.67h0a22.67,22.67,0,0,1-22.66-22.67v-38"/><polygon class="cls-5" points="243.71 375.79 244.36 394.94 251.91 403.81 261.04 388.73 243.71 375.79"/><path class="cls-5" d="M244.32,393.82c4,15.9,26.35,24,49.86,18s37.82-18.93,35.3-35.78"/><ellipse class="cls-5" cx="286.9" cy="369.78" rx="43.92" ry="29.7" transform="translate(-81.88 81.59) rotate(-14.19)"/><line class="cls-7" x1="330.11" y1="361.46" x2="330.03" y2="378.94"/><line class="cls-7" x1="269.82" y1="344.34" x2="303.98" y2="395.22"/></g></g></g></g></svg>