<svg xmlns="http://www.w3.org/2000/svg" viewBox="0 0 493.04 493.04"><defs><style>.cls-1,.cls-3,.cls-4,.cls-6{fill:none;}.cls-1,.cls-2,.cls-3,.cls-4{stroke:#000;}.cls-1,.cls-2,.cls-3,.cls-4,.cls-5,.cls-6,.cls-7{stroke-miterlimit:10;}.cls-1{stroke-width:8px;}.cls-2,.cls-5{fill:#fff;}.cls-2,.cls-3{stroke-width:6px;}.cls-4{stroke-width:3px;}.cls-5,.cls-6,.cls-7{stroke:#231f20;}.cls-5,.cls-6{stroke-width:4px;}.cls-7{fill:#231f20;}</style></defs><g id="Layer_2" data-name="Layer 2"><g id="Layer_1-2" data-name="Layer 1"><g id="Diagnóstico"><circle id="Rodona" class="cls-1" cx="246.52" cy="246.52" r="242.52"/><g id="Document"><polygon class="cls-2" points="299.75 380.3 98.1 380.3 98.1 145.86 125.55 115.33 156.72 80.74 299.75 80.74 299.75 380.3"/><line class="cls-3" x1="156.67" y1="80.74" x2="156.67" y2="146.58"/><line class="cls-3" x1="98.7" y1="145.73" x2="159.67" y2="145.73"/><line class="cls-4" x1="121.93" y1="341.28" x2="272.79" y2="341.28"/><line class="cls-4" x1="121.93" y1="303" x2="272.79" y2="303"/><line class="cls-4" x1="121.93" y1="264.73" x2="272.79" y2="264.73"/><line class="cls-4" x1="121.93" y1="226.45" x2="272.79" y2="226.45"/><line class="cls-4" x1="121.93" y1="188.17" x2="272.79" y2="188.17"/></g><path class="cls-5" d="M284.24,247.08l-10.65-3.18a4.53,4.53,0,0,1-4.53-4.53v-2.72a4.53,4.53,0,0,1,4.53-4.53l10.65-4.76a4.54,4.54,0,0,1,4.54,4.53v10.65A4.55,4.55,0,0,1,284.24,247.08Z"/><path class="cls-5" d="M317.06,247.08l10.65-3.18a4.53,4.53,0,0,0,4.53-4.53v-2.72a4.53,4.53,0,0,0-4.53-4.53l-10.65-4.76a4.53,4.53,0,0,0-4.54,4.53v10.65A4.54,4.54,0,0,0,317.06,247.08Z"/><path class="cls-6" d="M269.06,237.22s-21.21,6.07-24.16,18c-6,24.33,50.4,75.75,50.4,75.75"/><path class="cls-6" d="M332.24,237.22s21.21,6.07,24.15,18C362.38,279.59,306,331,306,331"/><rect class="cls-5" x="290.47" y="323.36" width="19.15" height="17.32" rx="1.87"/><path class="cls-6" d="M300.05,340.68s-14.32,38.85-14.53,53c-.6,38.91,7.74,56.32,23.22,59.84,21.14,4.81,38.17-10.26,46.86-22.62,6.63-9.42,8-35.32,8-35.32"/><circle class="cls-5" cx="363.01" cy="387.34" r="8.35"/><circle class="cls-7" cx="363.01" cy="387.34" r="1.88"/></g></g></g></svg>