<?xml version="1.0" standalone="no"?>
<!DOCTYPE svg PUBLIC "-//W3C//DTD SVG 20010904//EN"
 "http://www.w3.org/TR/2001/REC-SVG-20010904/DTD/svg10.dtd">
<svg version="1.0" xmlns="http://www.w3.org/2000/svg"
 width="425.000000pt" height="425.000000pt" viewBox="0 0 425.000000 425.000000"
 preserveAspectRatio="xMidYMid meet">

<g transform="translate(0.000000,425.000000) scale(0.100000,-0.100000)"
fill="#000000" stroke="none">
<path d="M1968 4239 c-661 -51 -1245 -396 -1617 -955 -461 -693 -458 -1632 6
-2327 343 -513 867 -843 1478 -932 144 -21 408 -24 545 -6 495 65 920 277
1266 632 168 173 286 341 389 554 139 285 208 594 208 920 0 332 -70 637 -213
930 -112 227 -245 410 -432 590 -369 358 -814 556 -1338 595 -74 5 -146 9
-160 9 -14 -1 -73 -6 -132 -10z m452 -85 c675 -96 1258 -527 1555 -1147 269
-562 269 -1202 0 -1764 -303 -633 -892 -1059 -1595 -1154 -217 -29 -525 -11
-750 46 -1063 266 -1731 1322 -1514 2395 183 909 950 1578 1884 1644 91 6 308
-4 420 -20z"/>
<path d="M2466 3618 c-31 -51 -70 -170 -60 -185 5 -9 45 -36 88 -61 61 -35 82
-43 95 -35 9 6 16 16 16 24 0 12 -14 23 -81 66 -16 10 -4 12 66 12 186 2 363
-78 537 -243 153 -145 232 -274 254 -417 10 -63 9 -91 -4 -170 -9 -51 -19
-104 -23 -115 -5 -17 0 -24 25 -32 17 -6 32 -8 35 -4 14 26 38 171 39 242 1
149 -38 260 -141 397 -200 264 -487 423 -741 411 l-87 -4 21 58 c17 51 18 60
5 68 -22 14 -28 12 -44 -12z"/>
<path d="M590 2725 l0 -595 700 0 701 0 104 26 105 26 0 154 c0 174 7 160 -90
185 l-45 12 65 16 65 16 0 159 0 160 -65 16 c-68 17 -69 24 -5 35 78 14 75 8
75 180 l0 154 -37 10 c-154 41 -142 41 -870 41 l-703 0 0 -595z m1380 390 l0
-175 -675 0 -675 0 0 175 0 175 675 0 675 0 0 -175z m115 147 l70 -18 3 -132
3 -131 -43 -11 c-24 -6 -57 -15 -75 -20 -17 -4 -34 -5 -37 -2 -9 8 -7 332 2
332 4 0 39 -9 77 -18z m-115 -537 l0 -175 -675 0 -675 0 0 175 0 175 675 0
675 0 0 -175z m118 148 l72 -17 0 -132 0 -132 -65 -16 c-103 -26 -95 -39 -95
149 0 91 3 165 8 165 4 0 40 -7 80 -17z m-118 -538 l0 -175 -672 2 -673 3 -3
173 -2 172 675 0 675 0 0 -175z m110 156 l75 -18 0 -133 0 -134 -70 -18 c-38
-9 -73 -18 -77 -18 -5 0 -8 77 -8 170 0 94 1 170 3 170 1 -1 36 -9 77 -19z"/>
<path d="M750 3100 l0 -110 340 0 340 0 0 110 0 110 -340 0 -340 0 0 -110z
m650 5 l0 -75 -310 0 -310 0 0 75 0 75 310 0 310 0 0 -75z"/>
<path d="M1679 3185 c-50 -27 -62 -111 -21 -148 52 -48 126 -36 157 24 45 85
-50 171 -136 124z m99 -42 c30 -40 2 -103 -46 -103 -36 0 -62 27 -62 66 0 58
72 83 108 37z"/>
<path d="M750 2710 l0 -110 340 0 340 0 0 110 0 110 -340 0 -340 0 0 -110z
m650 5 l0 -75 -310 0 -310 0 0 75 0 75 310 0 310 0 0 -75z"/>
<path d="M1663 2786 c-23 -20 -28 -32 -28 -71 0 -39 5 -51 28 -71 53 -45 131
-27 157 35 39 94 -79 174 -157 107z m105 -22 c34 -23 27 -83 -10 -104 -25 -13
-31 -13 -55 0 -38 21 -45 81 -11 104 12 9 29 16 38 16 9 0 26 -7 38 -16z"/>
<path d="M750 2330 l0 -110 340 0 340 0 0 110 0 110 -340 0 -340 0 0 -110z
m645 0 l0 -75 -305 0 -305 0 -3 64 c-2 35 -1 70 2 78 5 11 59 13 308 11 l303
-3 0 -75z"/>
<path d="M1664 2396 c-44 -44 -45 -83 -5 -128 24 -27 36 -33 70 -33 91 0 131
105 63 166 -45 40 -84 39 -128 -5z m110 -22 c37 -36 7 -104 -45 -104 -36 0
-59 24 -59 60 0 16 7 36 16 44 8 9 28 16 44 16 16 0 36 -7 44 -16z"/>
<path d="M2500 2203 c-1 -5 -57 -66 -125 -137 l-125 -130 0 -63 0 -63 -30 0
c-37 0 -85 -23 -94 -45 -3 -9 -6 -214 -6 -456 l0 -440 25 -24 24 -25 704 0
c694 0 704 0 725 20 l22 21 0 453 c0 514 5 483 -85 493 l-45 6 0 198 0 199
-495 0 c-272 0 -495 -3 -495 -7z m960 -208 l0 -185 -145 0 c-83 0 -154 -5
-168 -11 -13 -6 -32 -26 -40 -45 l-17 -34 -230 0 -231 0 -19 33 c-29 49 -56
57 -195 57 l-125 0 0 50 0 50 125 0 125 0 0 135 0 135 460 0 460 0 0 -185z
m-963 -42 c-3 -2 -44 -3 -93 -1 l-89 3 90 94 90 93 3 -92 c1 -51 1 -94 -1 -97z
m41 -179 c12 -4 30 -20 38 -36 26 -50 63 -58 261 -57 98 0 201 4 228 7 45 6
52 11 68 44 23 47 45 51 263 46 118 -2 165 -7 177 -17 15 -12 17 -56 17 -447
0 -380 -2 -434 -16 -448 -14 -14 -91 -16 -698 -16 -530 0 -686 3 -699 13 -16
11 -17 48 -15 457 l3 444 25 7 c31 9 317 11 348 3z"/>
<path d="M771 1838 c-20 -79 -26 -260 -11 -327 27 -127 118 -270 258 -402 95
-91 177 -149 287 -200 108 -51 189 -69 308 -69 53 0 97 -3 97 -7 0 -4 -7 -26
-16 -50 -19 -50 -13 -76 18 -71 17 2 28 22 57 96 24 66 32 98 26 108 -6 9 -47
36 -91 60 -74 40 -83 43 -98 29 -22 -22 -13 -37 41 -65 l47 -25 -40 -7 c-59
-11 -189 10 -277 44 -200 77 -423 282 -512 470 -57 122 -64 229 -25 404 12 51
5 64 -36 64 -17 0 -23 -10 -33 -52z"/>
</g>
</svg>
