<svg xmlns="http://www.w3.org/2000/svg" viewBox="0 0 493.04 493.04"><defs><style>.cls-1,.cls-2{fill:none;}.cls-1,.cls-2,.cls-3{stroke:#000;stroke-miterlimit:10;}.cls-1{stroke-width:8px;}.cls-2{stroke-width:7px;}</style></defs><g id="Capa_2" data-name="Capa 2"><g id="Capa_1-2" data-name="Capa 1"><circle class="cls-1" cx="246.52" cy="246.52" r="242.52"/><path class="cls-2" d="M364.24,232.75C322.05,252.67,314.68,209,314.68,209c-80.93-8.57-40.49-80.27-40.49-80.27C258.27,114.06,266,95.49,266,95.49A155.05,155.05,0,0,0,246.8,94.3,152.34,152.34,0,1,0,398.9,255.16C372.67,258.65,364.24,232.75,364.24,232.75Z"/><path class="cls-3" d="M135.2,217.5a15.64,15.64,0,0,0,6.47-.26s9.53-3.65,11.14,10c0,0,2.2,14.53-6.61,16.81a42,42,0,0,1-18.3-.2s-6.57-1.1-4.84-13c0,0,1.8-11.5,4.44-12.94a8.07,8.07,0,0,1,4.72-1.52Z"/><path class="cls-3" d="M219.16,270.68s2-8.34-10.06-14.52c0,0-.5-1-7.72-.6,0,0-1.28.47-11.22-2.22,0,0-10-1.42-6.2,12.41,0,0,1.57,11.18,17.71,15.52,0,0,10.57,3.89,13.86-2.29Z"/><path class="cls-3" d="M180,334s5.28-11.69-6.09-27.55c0,0-11.69-13.13-32.51,2.89,0,0-9.61,5.92,2.88,19.62,0,0,.72,1.2,9.61,2.8s9.61,4.16,9.61,4.16S169.87,346,180,334Z"/><path class="cls-3" d="M273.33,351.55S258,355.93,256,345.82c0,0-2-10.78-11.07-10.22,0,0-14.55.45-15.73,9.6,0,0-2.58,21.41,10.85,18,0,0,17.47-4.39,27,5.33,0,0,11.34,11.12,20.27-.84,0,0,5.9-9,.43-14.2,0,0-4.51-3.92-8.89-3.45Z"/><path class="cls-3" d="M295,301.81c-16.82-3-19.06-7.21-19.06-7.21-2.84-4.34,2.24-15.25,2.24-15.25,5.24-12.48,18.74-3.46,18.74-3.46,8.87,5.78,8.07,11.46,8.07,11.46v10S304.7,303.53,295,301.81Z"/><path class="cls-3" d="M369.22,315.62c.13-.28.53-10.05.53-10.09a21.53,21.53,0,0,0-7.42-16,15.9,15.9,0,0,0-11-2.78c-7.85,1.82-7.61,10.64-7.61,10.64-.12,15.94,9,16.94,9,16.94,10.19.88,10.81,1.84,10.81,1.84S367.38,319.71,369.22,315.62Z"/><path class="cls-3" d="M225.66,192.73s-5.23-5.38-8.52-5.6c0,0-10.16-.26-16.21,20,0,0-2.47,6.8,8.07,4.78,0,0,6.2-1.86,11.51.38,0,0,4.86,3.88,8.44-10.84C229,201.4,229.46,196,225.66,192.73Z"/><path class="cls-3" d="M290,246.63s-13.34.55-13-8.17c0,0-1-12.76,6.47-12.85,0,0,10.47.39,10.47,12.15C294,237.76,294.32,246.93,290,246.63Z"/><path class="cls-3" d="M193.4,137.53s-8.32-8.57-17.63.54c0,0-12.16,11.46-6.38,14.55a12.24,12.24,0,0,1,7.17,6s2.05,4.73,12.86,1.35c0,0,4-1.85,5.48-1.15,0,0,2.74,1.59,3.78-1.89,0,0,2.1-8.37-.84-13.11Z"/><path class="cls-3" d="M230.07,113.81s.08,5.16-5.6,1.64c0,0-5-3.39-3.29-9,0,0,1.35-4.34,3.77.22,0,0,1.54-4.33,3.41-2.72C228.36,103.91,230.71,106.52,230.07,113.81Z"/></g></g></svg>