<svg xmlns="http://www.w3.org/2000/svg" viewBox="0 0 427.7 427.7"><defs><style>.cls-1,.cls-2,.cls-4{fill:none;}.cls-1,.cls-6{stroke:#1d1d1b;stroke-width:8px;}.cls-1,.cls-2,.cls-4,.cls-5,.cls-6{stroke-miterlimit:10;}.cls-2{stroke:#010101;stroke-width:13px;}.cls-3{font-size:42.83px;fill:#1f140f;font-family:MyriadPro-Regular, Myriad Pro;}.cls-4,.cls-5{stroke:#1f140f;}.cls-4{stroke-width:2px;}.cls-5{fill:#1e1e1c;}.cls-6{fill:#fff;}.cls-7{fill:#1d1d1b;}</style></defs><g id="Capa_2" data-name="Capa 2"><g id="Capa_1-2" data-name="Capa 1"><ellipse class="cls-1" cx="213.49" cy="96.92" rx="101.9" ry="31.23"/><polyline class="cls-1" points="111.59 96.92 111.59 248.59 111.59 257.76"/><polyline class="cls-1" points="315.38 96.92 315.38 273.6 315.38 284.28"/><path class="cls-1" d="M111.83,147.78s-8.73,21.68,78.63,27.59a353.85,353.85,0,0,0,63.28-1.22c26.53-3,57-10.09,62.13-26.37"/><circle class="cls-2" cx="213.85" cy="213.85" r="207.35"/><path class="cls-1" d="M111.83,254.29s-8.72,21.68,78.54,27.59a353,353,0,0,0,63.2-1.23c26.5-3,56.9-10.08,62.05-26.36"/><text id="Y" class="cls-3" transform="translate(259.34 383.08)">Y</text><path class="cls-4" d="M331.1,332.32c2.25-49.58-4.58-95.92-57.52-99.16"/><polygon class="cls-5" points="324.4 325.84 338.4 325.84 331.4 338.52 324.4 325.84"/><circle class="cls-6" cx="272.67" cy="287.29" r="52.23"/><rect class="cls-7" x="271.76" y="243.34" width="5.77" height="44.82" rx="2.43"/><rect class="cls-7" x="263.2" y="280.15" width="6.57" height="33.49" rx="2.67" transform="translate(214.38 -98.64) rotate(34.41)"/><circle class="cls-7" cx="274.73" cy="285.34" r="7.08"/><path class="cls-1" d="M111.59,199.62s-8.73,21.68,78.63,27.59A352.92,352.92,0,0,0,253.5,226c26.53-3,57-10.09,62.12-26.37"/></g></g></svg>