<svg xmlns="http://www.w3.org/2000/svg" viewBox="0 0 493.04 493.04"><defs><style>.cls-1,.cls-4{fill:none;}.cls-1{stroke:#000;stroke-width:8px;}.cls-1,.cls-3,.cls-4{stroke-miterlimit:10;}.cls-2{font-size:165px;font-family:Calibri-Bold, Calibri;font-weight:700;}.cls-2,.cls-5{fill:#231f20;}.cls-3{fill:#fff;}.cls-3,.cls-4{stroke:#231f20;stroke-width:14px;}</style></defs><g id="Layer_2" data-name="Layer 2"><g id="Layer_1-2" data-name="Layer 1"><circle id="Rodona" class="cls-1" cx="246.52" cy="246.52" r="242.52"/><text class="cls-2" transform="translate(82.16 209.03)">****</text><g id="Candau"><path class="cls-3" d="M326.16,428.1H183.37c-4.61,0-8.38-4.3-8.38-9.55V299c0-5.25,3.77-9.55,8.38-9.55H326.16c4.61,0,8.38,4.3,8.38,9.55V418.55C334.54,423.8,330.77,428.1,326.16,428.1Z"/><path class="cls-4" d="M175,259.69c0-42.3,35.71-76.58,79.77-76.58s79.78,34.28,79.78,76.58"/><line class="cls-4" x1="174.99" y1="259.69" x2="174.99" y2="302.9"/><line class="cls-4" x1="334.54" y1="259.69" x2="334.54" y2="302.9"/><path class="cls-5" d="M272.09,395.46l-10.85-42.94a17.68,17.68,0,1,0-16.5,0l-10.85,42.94Z"/></g></g></g></svg>