<svg xmlns="http://www.w3.org/2000/svg" viewBox="0 0 427.7 427.7"><defs><style>.cls-1,.cls-3{fill:#1d1d1b;}.cls-1,.cls-2{stroke:#1d1d1b;}.cls-1,.cls-2,.cls-4{stroke-miterlimit:10;}.cls-2{fill:#fff;stroke-width:4px;}.cls-3{font-size:38.73px;font-family:ArialRoundedMTBold, Arial Rounded MT Bold;}.cls-4{fill:none;stroke:#010101;stroke-width:13px;}</style></defs><g id="Capa_2" data-name="Capa 2"><g id="Capa_1-2" data-name="Capa 1"><path class="cls-1" d="M229.72,323.9V219.1a1.45,1.45,0,0,0-1.45-1.46H203.64a1.45,1.45,0,0,0-1.45,1.46V323.9a1.46,1.46,0,0,1-1.46,1.45H163a1.46,1.46,0,0,0-1,2.51L215,378a1.46,1.46,0,0,0,2,0l52.93-50.15a1.45,1.45,0,0,0-1-2.51H231.18A1.45,1.45,0,0,1,229.72,323.9Z"/><path class="cls-2" d="M335,138.9,286.09,109a16.47,16.47,0,0,0-13.59-1.87L102.65,160.77c-9.19,2.9-14,13.72-10.67,24.16l26,82.41c3.3,10.45,13.42,16.56,22.6,13.66l169.85-53.63A16.44,16.44,0,0,0,320.5,218l22.88-52.53A21.8,21.8,0,0,0,335,138.9Z"/><circle class="cls-2" cx="302.07" cy="163.91" r="11.4"/><rect class="cls-2" x="148.29" y="116.88" width="101.58" height="159.11" rx="7.93" transform="matrix(0.3, 0.95, -0.95, 0.3, 326.46, -52.55)"/><text class="cls-3" transform="matrix(0.95, -0.3, 0.3, 0.95, 135.81, 228.86)">&lt;meta&gt;</text><circle class="cls-4" cx="213.85" cy="213.85" r="207.35"/></g></g></svg>