<svg xmlns="http://www.w3.org/2000/svg" viewBox="0 0 422.69 422.69"><defs><style>.cls-1,.cls-4{fill:none;}.cls-1,.cls-2{stroke:#000;}.cls-1,.cls-2,.cls-4{stroke-miterlimit:10;}.cls-1{stroke-width:8px;}.cls-2{stroke-width:7px;}.cls-3{fill:#1d1d1b;}.cls-4{stroke:#fff;stroke-width:4px;}.cls-5{fill:#fff;}</style></defs><g id="Capa_2" data-name="Capa 2"><g id="Capa_1-2" data-name="Capa 1"><circle class="cls-1" cx="211.35" cy="211.35" r="207.35"/><path class="cls-2" d="M210.51,229.34H209.4C80.75,228.83,96.52,351.46,96.52,351.46H323.39S339.16,228.83,210.51,229.34Z"/><polygon points="194.6 103.79 208.38 103.79 208.38 87.35 228.62 87.35 228.62 114.82 207.31 135.03 219.07 163.93 234.46 163.93 234.46 145.99 261.3 121.43 261.3 80.64 237.65 60.7 177.07 60.7 194.6 103.79"/><polygon points="224.57 177.46 235.56 204.46 235.56 177.46 224.57 177.46"/><polygon points="176.14 60.7 176.14 60.7 176.14 60.7 176.14 60.7"/><path class="cls-3" d="M171.16,62.69A76.18,76.18,0,0,0,228.1,203.27Z"/><line class="cls-4" x1="165.37" y1="39.85" x2="296.79" y2="364.67"/><circle class="cls-5" cx="166.57" cy="120.08" r="14.5"/></g></g></svg>