<svg xmlns="http://www.w3.org/2000/svg" viewBox="0 0 427.7 427.7"><defs><style>.cls-1,.cls-5{fill:#1d1d1b;}.cls-1,.cls-2,.cls-5{stroke:#1d1d1b;}.cls-1,.cls-2,.cls-4,.cls-5,.cls-6{stroke-miterlimit:10;}.cls-1,.cls-2{stroke-width:6px;}.cls-2,.cls-4,.cls-6{fill:none;}.cls-3{fill:#010101;}.cls-4,.cls-6{stroke:#010101;}.cls-4{stroke-width:7px;}.cls-6{stroke-width:13px;}</style></defs><g id="Capa_2" data-name="Capa 2"><g id="Capa_1-2" data-name="Capa 1"><polygon class="cls-1" points="219.5 265.35 202.81 265.35 202.81 335.8 163.98 335.8 209.28 378.71 254.16 336.19 219.5 336.19 219.5 265.35"/><rect class="cls-2" x="90.88" y="120.2" width="245.22" height="145.15" rx="15.23"/><path class="cls-3" d="M152.62,199h-.38c-43.69-.18-38.34,41.48-38.34,41.48H191s5.36-41.66-38.34-41.48"/><path class="cls-4" d="M152.62,199h-.38c-43.69-.18-38.34,41.48-38.34,41.48H191S196.32,198.81,152.62,199Z"/><circle class="cls-5" cx="152.43" cy="167.94" r="23.21"/><line class="cls-2" x1="217.44" y1="157.37" x2="306.43" y2="157.37"/><line class="cls-2" x1="217.44" y1="178.97" x2="306.43" y2="178.97"/><line class="cls-2" x1="217.44" y1="198.12" x2="306.43" y2="198.12"/><line class="cls-2" x1="217.44" y1="219.73" x2="306.43" y2="219.73"/><line class="cls-2" x1="217.44" y1="238.45" x2="306.43" y2="238.45"/><circle class="cls-6" cx="213.85" cy="213.85" r="207.35"/></g></g></svg>