<svg xmlns="http://www.w3.org/2000/svg" viewBox="0 0 493.04 493.04"><defs><style>.cls-1{fill:none;stroke:#000;}.cls-1,.cls-2{stroke-miterlimit:10;stroke-width:8px;}.cls-2{fill:#fff;stroke:#231f20;}.cls-3,.cls-4{fill:#231f20;}.cls-4{font-size:130px;font-family:Calibri-Bold, Calibri;font-weight:700;}</style></defs><g id="Layer_2" data-name="Layer 2"><g id="Layer_1-2" data-name="Layer 1"><circle class="cls-1" cx="246.52" cy="246.52" r="242.52"/><circle class="cls-2" cx="282.94" cy="113.4" r="52.23"/><rect class="cls-3" x="282.03" y="69.45" width="5.77" height="44.82" rx="2.43"/><rect class="cls-3" x="273.48" y="106.26" width="6.57" height="33.49" rx="2.67" transform="translate(117.92 -134.87) rotate(34.41)"/><circle class="cls-3" cx="285" cy="111.45" r="7.08"/><text class="cls-4" transform="translate(149.29 152.99)">d</text><path class="cls-3" d="M291.05,260.5A82,82,0,1,0,392.9,315.9,82,82,0,0,0,291.05,260.5Zm34,115a37.95,37.95,0,1,1,25.64-47.15A38,38,0,0,1,325,375.52Z"/><path class="cls-3" d="M314.88,280.6l-34.34,10.14c-2,.58-4.25-1.66-4.84-4.73l-7.93-41.59c-.48-2.48.34-4.65,1.93-5.12l26.46-7.81c1.58-.47,3.46.92,4.41,3.26L316.38,274C317.54,276.91,316.83,280,314.88,280.6Z"/><path class="cls-3" d="M313.07,397.83l34.34-10.14c2-.58,4.25,1.66,4.84,4.72l7.94,41.6c.47,2.47-.35,4.65-1.94,5.11l-26.46,7.82c-1.58.47-3.46-.92-4.41-3.27L311.57,404.4C310.41,401.52,311.12,398.41,313.07,397.83Z"/><path class="cls-3" d="M352.75,297.14l-28-22.35c-1.6-1.28-1.09-4.46,1.07-6.7l29.3-30.52c1.75-1.82,4-2.4,5.28-1.37L382,253.43c1.29,1,1.24,3.37-.13,5.5L359,294.58C357.28,297.2,354.34,298.41,352.75,297.14Z"/><path class="cls-3" d="M268.75,385.07l31.94,16.15c1.83.93,2,4.13.29,6.77L278.3,443.73c-1.35,2.13-3.44,3.15-4.91,2.41l-24.62-12.45c-1.48-.75-1.9-3.05-1-5.41l15.36-39.45C264.28,385.93,266.93,384.15,268.75,385.07Z"/><path class="cls-3" d="M377,353l-18.95,30.38c-1.08,1.73.47,4.54,3.27,5.92l38,18.71c2.26,1.12,4.57.91,5.45-.49l14.6-23.41c.88-1.41,0-3.59-2-5.12l-33.65-25.68C381.29,351.45,378.1,351.3,377,353Z"/><path class="cls-3" d="M254.28,328.43l16.07-32c.92-1.83-.89-4.47-3.81-5.57l-39.63-15c-2.36-.89-4.65-.46-5.39,1l-12.38,24.66c-.75,1.48.29,3.56,2.44,4.9l35.95,22.31C250.17,330.42,253.37,330.25,254.28,328.43Z"/><path class="cls-3" d="M267,373.39l-11.91-33.76c-.68-1.93-3.83-2.46-6.65-1.12l-38.27,18.18c-2.28,1.08-3.56,3-3,4.59l9.18,26c.55,1.57,2.78,2.26,5.23,1.64l41-10.44C265.62,377.72,267.72,375.31,267,373.39Z"/><path class="cls-3" d="M372.55,342.22l-8.35-34.81c-.47-2,1.89-4.15,5-4.56l42-5.53c2.5-.33,4.63.62,5,2.22l6.43,26.83c.39,1.61-1.1,3.4-3.49,4.21L379,344.1C376.1,345.09,373,344.21,372.55,342.22Z"/><path class="cls-3" d="M177.36,203.26a58.92,58.92,0,1,0,24.51,79.64A58.93,58.93,0,0,0,177.36,203.26ZM137,279.44A27.27,27.27,0,1,1,173.9,268.1,27.28,27.28,0,0,1,137,279.44Z"/><path class="cls-3" d="M185.17,228.73l-34.94-18.5a3.68,3.68,0,0,1-1.23-5.45l18.23-24.62a3.7,3.7,0,0,1,4.69-1.06l26.93,14.25a3.7,3.7,0,0,1,1.75,4.49L190.38,226.7A3.7,3.7,0,0,1,185.17,228.73Z"/><path class="cls-3" d="M113.44,281.76l34.94,18.5a3.68,3.68,0,0,1,1.24,5.45l-18.24,24.62a3.69,3.69,0,0,1-4.69,1.06L99.77,317.14A3.69,3.69,0,0,1,98,312.65l10.22-28.86A3.69,3.69,0,0,1,113.44,281.76Z"/><path class="cls-3" d="M189.28,274.1l-.9-39.52a3.68,3.68,0,0,1,4.15-3.74l30.39,3.91a3.68,3.68,0,0,1,3.21,3.57l.7,30.46a3.7,3.7,0,0,1-3.07,3.72l-30.18,5.15A3.68,3.68,0,0,1,189.28,274.1Z"/><path class="cls-3" d="M109.06,237.91l.89,39.52a3.67,3.67,0,0,1-4.15,3.74l-30.38-3.91a3.68,3.68,0,0,1-3.22-3.57l-.69-30.46a3.68,3.68,0,0,1,3.06-3.72l30.18-5.15A3.69,3.69,0,0,1,109.06,237.91Z"/><path class="cls-3" d="M187.56,279.47,154.37,301a3.69,3.69,0,0,0-.75,5.54l20.31,22.92a3.69,3.69,0,0,0,4.77.65l25.57-16.55a3.69,3.69,0,0,0,1.36-4.62L192.92,281A3.69,3.69,0,0,0,187.56,279.47Z"/><path class="cls-3" d="M111.59,231.76l33.19-21.47a3.7,3.7,0,0,0,.75-5.55l-20.31-22.92a3.69,3.69,0,0,0-4.77-.65L94.88,197.72a3.68,3.68,0,0,0-1.36,4.62l12.71,27.86A3.69,3.69,0,0,0,111.59,231.76Z"/></g></g></svg>