<svg xmlns="http://www.w3.org/2000/svg" viewBox="0 0 427.7 427.7"><defs><style>.cls-1,.cls-2,.cls-3,.cls-5,.cls-7{fill:none;}.cls-1,.cls-7{stroke:#010101;}.cls-1,.cls-2,.cls-3,.cls-4,.cls-5,.cls-7{stroke-miterlimit:10;}.cls-1{stroke-width:13px;}.cls-2,.cls-3,.cls-4,.cls-5{stroke:#1d1d1b;}.cls-2{stroke-width:3px;}.cls-3{stroke-width:4px;}.cls-4,.cls-6{fill:#fff;}.cls-4,.cls-5{stroke-width:9px;}.cls-7{stroke-linecap:round;stroke-width:5px;}</style></defs><g id="Capa_2" data-name="Capa 2"><g id="Capa_1-2" data-name="Capa 1"><circle class="cls-1" cx="213.85" cy="213.85" r="207.35"/><ellipse class="cls-2" cx="134.39" cy="228.54" rx="21.89" ry="6.71"/><polyline class="cls-2" points="112.5 228.54 112.5 261.12 112.5 263.09"/><path class="cls-2" d="M112.56,239.47s-1.88,4.65,16.89,5.92a76,76,0,0,0,13.59-.26c5.7-.65,12.24-2.17,13.35-5.66"/><path class="cls-2" d="M112.56,262.35s-1.88,4.65,16.87,5.92A75.74,75.74,0,0,0,143,268c5.5-.63,11.78-2.06,13.2-5.31a1.31,1.31,0,0,0,.09-.68h0s0-.11,0-.16V228.54"/><path class="cls-2" d="M112.5,250.6s-1.87,4.66,16.9,5.93a76.92,76.92,0,0,0,13.59-.26c5.7-.66,12.24-2.17,13.34-5.67"/><ellipse class="cls-3" cx="214.22" cy="134.03" rx="18.19" ry="16.34"/><line class="cls-4" x1="85.05" y1="308.25" x2="85.05" y2="175.56"/><polyline class="cls-5" points="49.62 207.98 214.22 60.08 378.83 207.98"/><line class="cls-4" x1="343.28" y1="308.25" x2="343.28" y2="175.56"/><ellipse class="cls-2" cx="294" cy="228.97" rx="21.89" ry="6.71"/><polyline class="cls-2" points="272.11 228.97 272.11 261.55 272.11 263.52"/><path class="cls-2" d="M272.16,239.9s-1.87,4.66,16.9,5.92a75.06,75.06,0,0,0,13.59-.26c5.7-.65,12.24-2.16,13.35-5.66"/><path class="cls-2" d="M272.16,262.78s-1.87,4.66,16.88,5.92a74.82,74.82,0,0,0,13.57-.26c5.5-.63,11.78-2.06,13.2-5.31a1.28,1.28,0,0,0,.09-.67h0c0-.06,0-.11,0-.17V229"/><path class="cls-2" d="M272.11,251S270.24,255.69,289,257a76.07,76.07,0,0,0,13.6-.26c5.7-.65,12.24-2.17,13.34-5.66"/><circle class="cls-6" cx="306.96" cy="312.8" r="2.25"/><g id="Capa_4" data-name="Capa 4"><line class="cls-7" x1="174.57" y1="233.36" x2="253.15" y2="233.36"/><line class="cls-7" x1="174.57" y1="233.36" x2="184.74" y2="223.19"/><line class="cls-7" x1="184.74" y1="243.67" x2="174.57" y2="233.51"/><line class="cls-7" x1="253.15" y1="259.45" x2="174.57" y2="259.45"/><line class="cls-7" x1="253.15" y1="259.45" x2="242.99" y2="249.29"/><line class="cls-7" x1="242.99" y1="269.76" x2="253.15" y2="259.6"/></g></g></g></svg>